<svg xmlns="http://www.w3.org/2000/svg" width="2400" height="1216" style="width:498.489px;height:auto" version="1.0" viewBox="0 0 1800 912"><g><path d="M909.6 31.9c-.4.5-.3 1.6 0 2.4.3 1-.3 2-1.5 2.7-1.2.6-2.1 1.9-2.1 2.9 0 3.1 3.7 16.1 5.1 17.8 2.4 2.8 1.6 19.3-1.4 29.3-1.4 4.7-2.8 10.1-3.2 12-.3 1.9-1.9 7.1-3.5 11.5-1.5 4.4-4 12-5.6 17-1.5 4.9-3.1 9.9-3.6 11-.4 1.1-1.9 5.1-3.2 9-5.4 15.9-9.7 26.8-11.6 29.5-1.1 1.5-2 3.6-2 4.7-.1 3-2.8 9.6-4.3 10.5-.8.4-2.5 3.6-3.7 7-2.3 6.4-6.6 13.9-13.2 23-2 2.8-4 6.5-4.4 8.2-.3 1.7-1.7 4.2-3 5.6-1.2 1.4-3.2 4.6-4.3 7.1s-3 5.4-4.2 6.5c-1.1 1-4.9 6.2-8.4 11.4-3.4 5.2-6.9 10.1-7.8 10.8-.9.8-3 3.6-4.7 6.3-1.8 2.7-3.8 4.9-4.5 4.9s-1.6 1.1-1.9 2.4c-.6 2.5-21.5 27-28.7 33.7-2.1 2-3.9 4.1-3.9 4.6s-3.5 4.5-7.7 8.9c-9.5 9.8-15.3 16.3-21.8 24.5-2.7 3.4-9.9 11.3-16 17.5-6 6.1-12.8 13-14.9 15.3-2.2 2.3-5.1 4.8-6.6 5.6s-3.3 2.8-4 4.5c-1.2 3-9.6 10-12 10-.7 0-3.3 2.1-5.9 4.7-5.1 5.3-15.4 13.9-19.8 16.5-1.5 1-4.8 3.3-7.3 5.3-2.5 1.9-6.1 4.2-8 5.1-12.4 5.6-22.1 10.8-27 14.5-1.9 1.5-5.7 3.4-8.5 4.3-6.5 2.1-15.5 7.3-15.5 8.9 0 .7-2.3 1.9-5.1 2.6-2.7.7-7.1 2.7-9.7 4.5-8.9 5.9-12.7 8-17.6 9.7-2.8.9-5.2 2.1-5.4 2.7-.6 2 5.3 1.4 8.1-.8 1.7-1.4 4-2 7.4-2 2.6 0 8.6-1.2 13.3-2.6 8.9-2.7 22.6-6.9 34.5-10.5 3.9-1.2 10.2-3.2 14-4.5 3.9-1.2 13.8-4.4 22-7 17.5-5.4 23.9-7.5 31.5-10.4 3-1.1 7.8-2.7 10.5-3.4 5.9-1.7 26.2-8.7 35.5-12.3 8.8-3.4 16.1-6.2 18.5-7.3 2.4-1 20-7.6 27.1-10 5.5-1.9 11.5-4.4 44.4-18.2 25.8-10.9 30-12.7 32.2-13.9 1-.5 2.2-.9 2.7-.9 2.5 0 68.2-31.7 81.6-39.3 2.2-1.3 7.2-4.1 11-6.2 3.9-2.1 8.7-4.9 10.7-6.2 2.1-1.3 4-2.3 4.3-2.3s3.9-2 7.9-4.5c4.1-2.5 7.7-4.5 8-4.5s2.4-1.3 4.8-2.9 5.9-3.7 7.8-4.8c1.9-1 6.3-3.7 9.8-6.1 3.5-2.3 6.5-4.2 6.6-4.2.5 0 24.7-16.2 29.1-19.4 2.2-1.7 6.5-4.8 9.5-7 3-2.3 8.1-6.1 11.2-8.6s8.1-6.3 10.9-8.5c7-5.3 28.8-24.3 41.6-36.3 21.4-19.9 55.9-58.7 54.7-61.5-.5-1.3-10.9-7.7-12.7-7.8-.7 0-3.4-1.3-6.2-2.9-2.7-1.6-18.7-9.8-35.5-18.3s-31.8-16.1-33.5-17c-6.5-3.6-50.1-24.5-52.5-25.2-1.4-.4-3-1.2-3.6-1.7-2.1-1.6-19.5-9.8-20.9-9.8-.7 0-2-.6-2.7-1.4-.8-.7-4.3-2.7-7.8-4.4-3.6-1.6-14.8-7-25-12-10.2-4.9-22.3-10.7-27-12.9s-13.2-6.3-19-9.1c-11.9-5.7-19.9-9.2-21.1-9.2-.4 0-1 .4-1.3.9"/><path d="M676.3 61.2c.3.7 4.4 9.4 9.1 19.2 6 12.6 8.4 18.6 8 20.2-.3 1.3.1 5.3.9 9.1 5.7 25.4 4.9 54.7-2.9 108.8-1.6 10.7-7.3 32.5-11.5 43.5-1.1 3-3.3 8.9-4.9 13-1.5 4.1-3.5 9.5-4.5 12-4.1 10.5-18.4 40.9-25.3 53.6-3.1 5.8-20.9 30-32.6 44.2-4.3 5.4-8.6 10.8-9.4 12.2-2.4 3.7-20.3 25.5-28.8 34.9-4.6 5.3-15.2 18.3-17.3 21.5-.8 1.1-2.7 3.4-4.2 5.1-1.5 1.6-4.3 5.5-6.3 8.5s-5.2 7.5-7.1 10c-5.8 7.5-6.8 9-6.2 9.6.9.9 3.1-.7 12.5-8.8 4.8-4.2 15.7-13.5 24.2-20.8 34.1-29.2 80.6-73.5 120.6-115.1 15.2-15.8 39.7-44.3 50.4-58.5 14.8-19.6 38-53.2 38-54.8 0-.3 1.7-3.1 3.8-6.3s5.5-9 7.4-12.8c2-3.9 5.3-9.9 7.2-13.5 5.7-10.2 12.2-24.1 17.6-37.5 1.8-4.4 4-9.8 5-12 4.2-9.8 4.4-10.6 2.9-11.9-.8-.7-5.2-2.5-9.9-3.9-4.7-1.5-10.4-4-12.5-5.6-2.2-1.6-6.8-3.8-10.2-4.9-5.5-1.8-29.9-14.7-36.4-19.3-1.4-1-4.5-2.5-7-3.5-2.4-.9-5.8-2.7-7.5-4-1.6-1.2-5.9-3.6-9.5-5.4-14.4-7.1-20.8-10.6-23.6-13.1-3.8-3.2-18.5-10.9-21-10.9-1 0-3.1-.9-4.8-2-3.4-2.3-4.9-2.5-4.2-.8"/><path d="M541.6 155.2c.3 1.3 2 4.6 3.5 7.5 1.6 2.9 2.9 5.9 2.9 6.7s1.3 4.3 3 7.8c3.2 6.6 4 13.8 1.7 13.8-.8 0-2.9-2.7-4.8-6-6.1-10.8-6.1-10.8-5.5 1.5.4 6 1.1 12.8 1.7 15 .5 2.2 1.3 12 1.6 21.8.4 11.5.9 17.5 1.5 16.9s1.2-10.6 1.5-22.4c.7-26.8 2.1-30.8 5.8-16.3 3.6 14.2 3 70.3-1.1 105.5-4.4 37.6-12.8 68.4-27.1 99-2.4 5.2-5.9 12.6-7.6 16.5-5.7 12.5-16.5 33.2-18.4 35.3-.7.7-1.3 2-1.3 2.8s-.7 1.4-1.5 1.4c-1.8 0-18.9 34-18.3 36.5.4 2.1 1.6 1 8.3-7.5 3.3-4.1 6.7-8.2 7.6-9.1 1.9-1.9 19.4-24.5 21.8-28.2.8-1.2 2.7-3.6 4.2-5.2 6.8-7.5 35-48.4 49-71 9.2-14.9 9.7-15.7 10.6-17.5.4-.8 2-3.8 3.6-6.5 1.6-2.8 6-11.1 9.7-18.5 5.8-11.6 8.6-17.4 13.1-27.5 7.3-16.6 14.5-37.3 19.4-56 1.4-5.5 3.2-12.3 3.9-15 3.4-12.4 6-28.6 5-30.2-1.3-2-21.9-14.4-51.4-30.9-8.7-4.8-10.3-5.7-26.9-15.3-13.3-7.6-16.7-8.7-15.5-4.9M785.6 278.6c-.4 1-.1 1.4.6 1.2 1.5-.5 2.3-2.8 1-2.8-.5 0-1.3.7-1.6 1.6M1100.7 289.6c-.4.4-.7 1.4-.7 2.3-.1 2.6-3.3 8.5-6.5 12.2-4 4.5-16.8 13.3-40 27.6-6 3.7-13.4 8.4-16.4 10.5s-5.9 3.8-6.5 3.8-5.4 2.8-10.6 6c-5.2 3.3-12.9 7.6-17 9.6s-8.2 4.1-9 4.9c-1.3 1.1-4.9 3-24.5 12.7-2.7 1.4-6.3 3.3-8 4.2-3.9 2.1-22.2 10.6-22.9 10.6-.3 0-2.7 1.3-5.3 2.8-2.7 1.6-7.6 3.8-10.8 5-3.3 1.1-7.8 3-10 4-2.2 1.1-10.5 4.8-18.5 8.1-8 3.4-16.3 7-18.5 8.1-2.2 1-5.8 2.4-8 3.1-2.2.6-7.6 2.6-12 4.4s-11.4 4.4-15.5 5.8c-9 2.9-17.9 6-28 9.7-4.1 1.5-10.2 3.5-13.5 4.5-3.3.9-9.4 2.8-13.5 4.2-8.1 2.6-12.5 4-24 7.2-4.1 1.1-9.7 2.7-12.5 3.5-14.8 4.3-19.5 5.5-24 6.6-2.7.7-7 1.8-9.5 2.5-2.5.8-8.1 2.1-12.5 3-4.4.8-10.5 2.2-13.5 3-9.9 2.6-28.8 6.5-36.1 7.4-14.6 1.9-8.8 4.7 7.3 3.5 5.1-.3 12.4-1.3 16.1-2 3.8-.8 10.6-1.4 15.2-1.4 7.9 0 19.9-1.2 43.5-4.5 5.8-.7 16.1-2.1 23-3 6.9-.8 16.3-2.2 21-3s13.5-2.2 19.5-3.1c6.1-.8 16.9-2.7 24-4.1 7.2-1.4 15-2.9 17.5-3.3 6.3-1.1 29.3-5.7 36.5-7.4 3.3-.8 15-3.5 26-6.1 23.2-5.3 31.1-7.2 38-9 2.8-.8 7.9-2.1 11.5-3.1 11.4-2.9 43.5-12.3 61-17.9 2.5-.8 11.5-3.5 20-6 15.6-4.7 69.3-22.3 74-24.3 1.4-.6 8.4-3.2 15.5-5.7 7.2-2.5 16.2-5.9 20-7.4 3.9-1.6 11.1-4.6 16-6.6 5-2 10.4-4.2 12-5 1.7-.7 8.3-3.6 14.8-6.4s14.6-6.4 18-8 9.1-4.1 12.7-5.6 10.1-4.5 14.5-6.7 9.5-4.8 11.3-5.7c1.9-.9 3.6-1.9 3.8-2.3.6-1-5.9-4.1-13.1-6.2-3.3-1-11.8-3.6-19-5.8-23.7-7.2-44.6-13.3-57.5-16.8-3.6-1-9.6-2.7-13.5-3.9-3.8-1.2-9.2-2.8-12-3.6-2.7-.8-8.8-2.5-13.5-3.9-10.4-3.1-15.3-4-16.3-3"/><path d="M1081.4 303c-3.8 2.7-7.3 5.3-7.9 5.7-1.9 1.5-6.3 4.8-8.5 6.3-1.2.8-3.1 2.3-4.2 3.2-1.2 1-2.5 1.8-3 1.8-.4 0-.8.4-.8.9s.9.7 2 .4 2-.8 2-1.2 1.7-1.5 3.8-2.6c8.6-4.6 25.2-16.7 25.2-18.6 0-1.7-1.7-.9-8.6 4.1M1047 327c0 1.3 1.1 1.3 3 0 1.2-.8 1.1-1-.7-1-1.3 0-2.3.4-2.3 1M1043.5 329.1c-.4.6-.5 1.3-.2 1.6.7.7 2.7-.6 2.7-1.8s-1.7-1.2-2.5.2M1035.5 334.1c-2.8 1.7-2.8 1.9-.7 1.9 1.2 0 2.2-.4 2.2-.8 0-.5 1-1.4 2.3-2s1.6-1.1.7-1.1c-.8 0-2.8.9-4.5 2M1028.2 338.3c-.6.7-3.2 2.3-5.7 3.6-2.5 1.2-4.5 2.7-4.5 3.2 0 1.5 1.7 1 5.7-1.7 2.1-1.4 4.8-3 6.1-3.5 1.2-.5 2.2-1.3 2.2-1.9 0-1.4-2.6-1.2-3.8.3M979.5 340.1c-4 2.5-1.5 2.5 2.7-.1 1.8-1.1 2.6-2 1.8-1.9-.8 0-2.8.9-4.5 2M1014 347c-.8.5-1.1 1.2-.7 1.6s1.5 0 2.4-.9c1.8-1.8.8-2.3-1.7-.7M1109 402c0 1.3 1.1 1.3 3 0 1.2-.8 1.1-1-.7-1-1.3 0-2.3.4-2.3 1M1117.5 417.7c-2.8 1.4-6.7 3.8-8.9 5.2-2.1 1.4-4.8 3.2-6 3.8-3.1 1.9-23.8 9.6-34.1 12.8-4.9 1.5-12.8 4-17.5 5.5-10.1 3.3-31.4 9.5-38.5 11.1-2.7.6-8.6 2.2-13 3.5s-10 2.8-12.5 3.4c-2.5.5-7.6 1.9-11.5 3.1-3.8 1.1-12.4 3.2-19 4.5-10.8 2.3-22.1 4.8-40 8.9-15.1 3.4-25.7 5.5-33.5 6.6-4.7.6-15.2 2.5-23.5 4.1-22.8 4.6-27.9 5.4-42 7.2-7.1.9-16.1 2.3-20 3.1-9.3 1.8-38.9 5.8-56 7.6-4.9.5-11.2 1.3-13.8 1.9-2.6.5-7.5 1-10.9 1-3.3 0-10.6.7-16.2 1.5-9.7 1.4-33 3.6-54.1 5.2-5.5.4-20 .7-32.2.5-19.9-.3-23.7 0-37.4 2.3-8.4 1.4-19.6 2.5-24.9 2.6-5.2.1-12 .4-15 .8-5.3.7-5.3.7-2 1.3 17.6 3.1 182.2 5.1 227.7 2.8 12.5-.6 32-1.5 43.3-2 24.1-1 69.2-3.8 73.5-4.5 1.7-.3 8.6-1 15.5-1.5s16.8-1.4 22-2c5.2-.5 16.3-1.7 24.5-2.5 52.1-5.4 97-10.9 121-15 4.4-.7 12.5-2.1 18-3 33.6-5.5 44.8-7.6 48.8-9.1 2-.8 5.5-1.4 7.6-1.4s9.2-1.1 15.7-2.6c6.6-1.4 14.2-2.9 16.9-3.4 7-1.2 26.5-5.8 49.5-11.8 6.3-1.7 12.9-3.3 14.5-3.7 5.7-1.2 8.6-5.5 3.6-5.5-.9 0-2.1-.4-2.6-.9-.6-.5-5.7-2.8-11.5-5.1s-12.5-5-15-6c-22.7-9-30.8-12.2-32.5-13-6-2.7-50.6-20-51.7-20-.7 0-3.6 1.2-6.3 2.7"/><path d="M620.5 516c-1.6.7-1.1.9 2 .9 2.9.1 3.6-.2 2.5-.9-1.7-1.1-1.9-1.1-4.5 0"/></g></svg>