<svg version="1.0" xmlns="http://www.w3.org/2000/svg" width="600.000000pt" height="304.000000pt" viewBox="0 0 600.000000 304.000000" preserveAspectRatio="xMidYMid meet" style="width: 498.376px; height: auto;"> <g transform="translate(0.000000,304.000000) scale(0.100000,-0.100000)" fill="#ffffff" stroke="none" class=""> <path d="M2990 2958 c0 -8 4 -18 10 -24 5 -5 16 -31 24 -57 14 -47 9 -102 -13 -152 -5 -11 -12 -31 -15 -45 -15 -78 -96 -275 -143 -348 -18 -29 -33 -56 -33 -61 0 -5 -3 -11 -8 -13 -4 -1 -22 -25 -40 -53 -89 -138 -193 -257 -407 -467 -134 -132 -161 -154 -255 -204 -58 -31 -121 -66 -140 -76 l-35 -20 26 24 c14 12 70 57 125 98 119 91 411 380 515 510 148 185 259 374 313 530 32 94 69 240 63 246 -2 3 -15 -32 -27 -77 -64 -240 -169 -442 -347 -668 -94 -120 -425 -448 -566 -561 -58 -47 -106 -90 -107 -96 0 -6 -12 -16 -26 -23 -56 -25 -13 -19 101 15 665 195 1208 440 1559 703 91 68 376 341 376 360 0 10 -509 264 -880 439 -30 15 -58 28 -62 30 -5 2 -8 -3 -8 -10z m151 -90 c3 -5 8 -9 10 -7 8 5 79 -23 79 -31 0 -8 33 -23 52 -25 4 0 17 -8 28 -17 11 -10 27 -18 35 -18 7 0 17 -5 20 -10 4 -6 11 -8 16 -5 5 4 9 1 9 -6 0 -7 3 -10 6 -6 4 3 23 -6 42 -21 20 -15 32 -20 27 -12 -7 12 -3 11 18 -2 15 -10 39 -26 54 -35 15 -10 24 -12 19 -5 -6 10 -2 10 18 0 15 -6 24 -13 22 -16 -3 -2 28 -20 67 -40 40 -20 75 -41 78 -45 3 -5 8 -7 10 -5 6 5 148 -66 149 -74 0 -5 -7 -8 -15 -8 -36 0 -127 -74 -118 -96 3 -9 0 -12 -8 -9 -8 3 -43 -25 -83 -65 -38 -39 -73 -70 -77 -70 -8 0 -30 -18 -103 -88 -22 -20 -36 -31 -31 -23 5 8 -10 0 -33 -19 -23 -18 -39 -37 -36 -41 3 -5 -3 -6 -12 -2 -13 5 -15 3 -9 -7 5 -8 4 -11 -3 -6 -6 4 -35 -9 -64 -27 -109 -70 -125 -79 -263 -149 -106 -54 -210 -101 -315 -142 -52 -21 -114 -46 -137 -57 -24 -10 -47 -19 -52 -19 -4 0 -29 -9 -54 -20 -25 -11 -82 -25 -126 -32 -45 -6 -81 -16 -81 -22 0 -6 -4 -5 -9 3 -10 16 24 60 45 61 15 0 45 35 37 43 -3 4 1 7 10 7 16 0 129 109 219 211 26 30 68 76 93 103 25 27 45 55 45 62 0 7 4 14 8 16 10 4 172 233 172 243 0 4 14 37 31 74 47 99 66 154 108 301 8 25 17 58 22 74 5 16 6 46 3 67 -5 27 -3 39 5 39 7 0 9 5 5 11 -8 13 58 -20 67 -33z" class=""></path> <path d="M2951 2959 c0 -4 -10 -51 -21 -104 -11 -54 -18 -100 -16 -102 7 -7 48 175 43 194 -3 10 -5 15 -6 12z"></path> <path d="M2180 2843 c0 -10 7 -54 15 -98 8 -44 15 -129 15 -190 1 -85 4 -104 11 -85 15 36 -15 390 -33 390 -4 0 -8 -8 -8 -17z"></path> <path d="M2240 2857 c0 -3 18 -34 40 -70 48 -80 65 -165 55 -282 -4 -44 -9 -89 -12 -100 -2 -11 -6 -42 -9 -70 -3 -27 -9 -59 -13 -70 -5 -11 -23 -60 -41 -110 -17 -49 -40 -108 -50 -130 -10 -22 -25 -56 -33 -75 -12 -29 -155 -233 -176 -250 -12 -10 -156 -184 -172 -207 -9 -14 -35 -44 -59 -69 -23 -25 -40 -47 -37 -50 2 -3 11 1 18 8 8 8 77 70 154 138 179 159 443 423 522 521 104 128 193 268 260 405 35 72 63 135 63 140 0 5 -44 30 -98 57 -94 46 -236 121 -354 186 -32 18 -58 30 -58 28z m180 -141 c30 -19 58 -32 62 -30 5 3 8 0 8 -5 0 -6 7 -11 15 -11 8 0 15 -3 15 -8 0 -6 38 -25 138 -68 39 -17 40 -29 5 -48 -26 -14 -27 -15 -5 -16 26 0 26 -1 11 -34 -7 -14 -16 -23 -22 -19 -6 3 -7 1 -3 -6 4 -6 -4 -32 -18 -57 -14 -26 -26 -53 -26 -60 0 -8 -4 -14 -10 -14 -5 0 -10 -5 -10 -12 0 -6 -11 -25 -24 -42 -13 -17 -26 -41 -30 -53 -4 -13 -15 -23 -23 -23 -9 0 -13 -3 -10 -7 4 -3 -8 -20 -26 -36 -17 -17 -25 -26 -17 -21 13 7 12 4 -1 -16 -9 -14 -22 -25 -29 -25 -7 0 -14 -9 -16 -20 -2 -11 -10 -25 -18 -31 -9 -6 -13 -14 -9 -17 3 -4 -1 -7 -10 -7 -9 0 -17 -6 -17 -14 0 -7 -24 -36 -54 -65 -30 -28 -52 -51 -49 -51 6 0 -56 -61 -90 -89 -15 -12 -17 -12 -11 3 3 9 10 16 15 16 5 0 15 12 22 28 6 15 16 30 22 34 6 5 6 8 -2 8 -15 0 -6 26 44 130 23 47 57 128 74 180 32 93 32 99 33 280 1 102 -2 202 -5 223 -8 47 1 47 71 3z" class=""></path> <path d="M2244 2750 c4 -19 9 -89 12 -155 14 -268 -77 -537 -299 -881 -136 -211 -117 -200 28 16 163 243 254 467 284 695 14 108 18 245 7 245 -5 0 -6 15 -3 33 4 24 0 40 -15 58 l-19 24 5 -35z"></path> <path d="M2766 2555 c-4 -16 -34 -84 -67 -150 -32 -66 -52 -111 -43 -100 27 33 125 246 122 264 -3 10 -7 4 -12 -14z" class=""></path> <path d="M1800 2541 c0 -4 16 -36 35 -72 30 -58 35 -77 39 -153 3 -79 -15 -302 -28 -344 -3 -9 -8 -34 -10 -55 -8 -59 -54 -181 -114 -302 -30 -60 -58 -112 -62 -115 -12 -9 -73 -130 -68 -136 8 -8 229 290 301 407 74 120 112 195 151 292 30 75 88 288 81 295 -5 5 -19 14 -97 56 -29 16 -92 52 -140 81 -49 29 -88 50 -88 46z m140 -118 c0 -5 31 -23 69 -41 50 -24 69 -38 66 -50 -1 -9 -8 -50 -15 -89 -7 -40 -17 -73 -21 -73 -5 0 -6 -6 -3 -14 3 -8 1 -17 -5 -21 -6 -3 -11 -17 -11 -31 0 -13 -4 -24 -9 -24 -4 0 -14 -20 -21 -45 -7 -26 -17 -42 -23 -38 -5 3 -7 1 -4 -5 11 -16 -4 -44 -20 -38 -8 3 -11 1 -8 -4 3 -6 -1 -22 -9 -37 -8 -16 -17 -36 -20 -46 -3 -10 -10 -15 -16 -12 -6 3 -10 -4 -10 -17 0 -18 -2 -20 -10 -8 -8 12 -10 8 -11 -15 -1 -16 -3 -23 -5 -15 -2 8 7 74 20 145 25 137 36 415 17 444 -14 21 -2 41 25 41 13 0 24 -3 24 -7z"></path> <path d="M1754 2513 c4 -16 10 -107 14 -203 6 -158 7 -167 13 -90 3 47 1 130 -4 185 -4 55 -9 108 -10 118 -1 9 -5 17 -10 17 -5 0 -6 -12 -3 -27z"></path> <path d="M3942 2472 c-29 -46 -110 -132 -227 -241 -50 -46 -77 -77 -62 -69 35 18 254 234 291 287 16 22 26 44 25 50 -2 5 -14 -7 -27 -27z"></path> <path d="M1808 2430 c19 -200 0 -405 -57 -630 -16 -63 -28 -116 -26 -118 2 -2 15 34 29 80 77 257 103 576 57 713 -8 22 -8 11 -3 -45z"></path> <path d="M2592 2218 c-80 -128 -191 -258 -379 -447 -106 -107 -192 -196 -190 -198 2 -2 35 27 73 64 39 38 92 89 119 114 61 57 152 154 225 240 30 35 57 66 60 69 11 10 126 185 133 203 12 32 -1 17 -41 -45z"></path> <path d="M2096 2112 c-23 -73 -129 -285 -191 -382 -69 -110 -237 -328 -275 -357 -8 -7 -10 -13 -4 -13 22 0 182 192 280 336 79 117 230 452 212 470 -3 2 -12 -22 -22 -54z"></path> <path d="M3550 2096 c-221 -172 -742 -428 -1122 -552 -49 -16 -88 -32 -88 -35 0 -15 326 101 450 159 36 17 94 42 129 57 105 44 312 149 422 215 122 73 269 177 269 191 0 12 2 13 -60 -35z"></path> <path d="M3666 2055 c-13 -50 -376 -262 -636 -370 -36 -15 -78 -33 -95 -40 -185 -81 -466 -167 -675 -205 -63 -12 -128 -25 -145 -30 l-30 -8 33 -1 c78 -2 545 60 717 96 298 62 656 164 920 263 154 58 388 161 395 175 3 5 -15 15 -40 22 -207 61 -422 123 -429 123 -5 0 -12 -11 -15 -25z m77 -27 c12 -6 29 -13 37 -14 26 -5 94 -22 125 -32 17 -5 36 -7 44 -4 8 3 11 0 7 -7 -5 -7 3 -11 22 -11 44 0 97 -21 80 -31 -7 -5 -25 -9 -40 -9 -15 0 -30 -5 -34 -11 -3 -6 -14 -9 -24 -6 -10 2 -23 -4 -31 -14 -9 -12 -21 -17 -34 -13 -15 4 -17 3 -6 -4 11 -8 5 -15 -30 -29 -24 -11 -60 -25 -79 -31 -33 -11 -34 -10 -15 5 18 14 18 15 2 9 -10 -3 -25 -6 -32 -6 -7 0 -23 -11 -36 -25 -17 -17 -31 -22 -46 -18 -14 3 -23 1 -23 -6 0 -7 -6 -11 -12 -10 -33 4 -66 -2 -84 -16 -18 -14 -17 -14 9 -5 40 14 47 12 14 -6 -15 -8 -32 -12 -37 -9 -13 8 -140 -35 -140 -48 0 -5 -8 -3 -17 4 -9 8 -14 9 -10 3 4 -7 -2 -14 -16 -17 -12 -3 -40 -11 -62 -17 -22 -6 -57 -13 -78 -15 -21 -3 -44 -8 -50 -12 -7 -4 -21 -9 -32 -10 -11 -2 -75 -17 -142 -34 -67 -16 -146 -34 -175 -39 -29 -5 -64 -12 -77 -16 -17 -5 -22 -4 -17 4 4 7 16 12 28 12 11 0 32 7 46 15 15 8 70 28 122 45 52 17 109 37 125 45 50 24 170 77 172 76 3 -1 118 60 166 87 20 12 52 31 71 41 19 11 58 36 86 56 28 20 55 33 60 30 6 -4 10 1 10 10 0 9 4 14 9 11 5 -3 24 8 42 25 32 30 70 59 77 59 2 0 13 -5 25 -12z" class=""></path> <path d="M3275 1670 c-19 -8 -19 -9 2 -9 12 -1 25 4 28 9 7 12 -2 12 -30 0z"></path> <path d="M3595 2029 c-77 -58 -221 -144 -375 -222 -85 -43 -144 -75 -130 -71 86 24 512 263 550 309 20 25 -2 17 -45 -16z"></path> <path d="M4175 1920 c-4 -6 -27 -20 -53 -32 -25 -12 -41 -23 -34 -26 13 -4 88 33 97 49 4 5 5 13 2 15 -3 3 -8 0 -12 -6z"></path> <path d="M3777 1739 c-62 -36 -635 -208 -817 -245 -47 -9 -89 -21 -95 -27 -7 -7 -4 -8 7 -4 9 3 45 11 80 17 86 15 245 54 348 85 47 15 121 37 165 50 120 35 301 101 327 119 25 18 14 22 -15 5z" class=""></path> <path d="M3645 1634 c-27 -13 -39 -21 -25 -18 29 8 80 32 80 39 0 6 4 8 -55 -21z"></path> <path d="M3715 1644 c-32 -25 -96 -50 -222 -87 -216 -63 -307 -86 -443 -112 -74 -14 -166 -32 -205 -40 -100 -21 -244 -42 -445 -64 -190 -22 -392 -35 -325 -22 28 6 15 7 -40 4 -44 -3 -98 -9 -120 -14 -22 -5 -66 -9 -97 -9 -34 0 -58 -4 -58 -11 0 -14 923 -5 1110 10 347 29 711 77 960 127 79 16 285 62 309 70 15 5 -369 164 -392 164 -7 0 -21 -8 -32 -16z m57 -28 c4 3 24 -4 47 -15 22 -12 47 -21 56 -21 9 0 13 -4 10 -10 -3 -5 0 -7 8 -4 8 3 43 -8 77 -24 l62 -30 -44 -7 c-23 -4 -62 -8 -86 -7 -36 0 -41 -2 -27 -12 13 -9 4 -12 -51 -12 -45 0 -70 -5 -78 -15 -7 -9 -35 -15 -84 -16 -39 -1 -100 -9 -135 -19 -34 -9 -82 -18 -107 -19 -68 -4 -178 -15 -245 -25 -33 -5 -87 -12 -120 -15 -33 -3 -85 -8 -115 -11 -89 -11 -108 -12 -260 -17 -80 -3 -134 -4 -120 -1 31 5 152 23 200 28 19 3 64 10 100 16 36 6 85 14 110 16 25 3 81 14 125 24 44 11 91 21 105 24 14 2 86 21 160 41 74 21 141 38 148 38 6 0 12 4 12 9 0 4 13 8 29 8 17 0 33 5 36 10 4 6 11 8 16 4 6 -3 19 2 31 13 11 10 21 16 22 15 3 -8 86 31 86 40 0 7 5 6 13 -1 8 -6 16 -8 19 -5z" class=""></path> <path d="M2755 1605 c-25 -12 -26 -14 -5 -9 28 7 60 23 45 23 -5 0 -23 -6 -40 -14z"></path> <path d="M2570 1544 c-69 -23 -119 -43 -112 -43 16 -1 262 78 262 85 0 8 -25 1 -150 -42z"></path> <path d="M1970 1538 c-19 -17 -48 -43 -65 -57 -75 -66 -153 -121 -171 -121 -15 0 -16 -2 -5 -9 21 -13 39 -1 161 102 130 111 125 106 119 111 -2 2 -20 -9 -39 -26z"></path> <path d="M1985 1404 c-44 -13 -88 -22 -97 -20 -21 5 -34 -10 -15 -17 19 -7 190 38 195 52 2 6 2 11 0 10 -1 0 -39 -11 -83 -25z"></path> <path d="M2723 1403 c9 -2 25 -2 35 0 9 3 1 5 -18 5 -19 0 -27 -2 -17 -5z"></path> <path d="M2070 1381 c0 -19 21 -22 85 -12 l60 9 -57 1 c-31 0 -63 4 -72 7 -9 3 -16 1 -16 -5z"></path> <path d="M2445 1370 c-71 -10 -119 -18 -105 -19 29 -1 283 29 289 35 7 7 -48 2 -184 -16z"></path> <path d="M2238 1343 c12 -2 32 -2 45 0 12 2 2 4 -23 4 -25 0 -35 -2 -22 -4z"></path> <path d="M2158 1333 c12 -2 30 -2 40 0 9 3 -1 5 -23 4 -22 0 -30 -2 -17 -4z"></path> <path d="M1825 1259 c28 -4 138 -10 245 -13 148 -4 170 -3 90 4 -151 11 -396 19 -335 9z"></path> <path d="M3235 1071 c-193 -90 -172 -388 33 -447 116 -34 231 21 277 133 21 50 19 149 -4 198 -23 49 -74 99 -123 119 -50 21 -134 20 -183 -3z m160 -5 c28 -13 26 -13 -31 -9 -77 7 -121 -8 -167 -54 -46 -45 -70 -108 -66 -166 5 -53 -6 -53 -15 -2 -9 48 16 130 53 174 50 61 157 87 226 57z m5 -75 c42 -22 80 -83 80 -130 0 -48 -37 -119 -74 -142 -44 -27 -125 -26 -160 2 -39 30 -56 71 -56 132 0 118 111 191 210 138z m100 -187 c-25 -87 -87 -135 -172 -133 l-43 1 58 12 c89 19 146 87 148 175 0 33 1 34 11 14 8 -16 7 -35 -2 -69z m-310 -74 c6 -11 9 -20 7 -20 -2 0 -12 9 -22 20 -10 11 -13 20 -7 20 6 0 16 -9 22 -20z m66 -55 c20 -14 32 -25 27 -25 -14 0 -72 30 -78 41 -11 17 14 9 51 -16z" class=""></path> <path d="M4435 1077 c-6 -6 -9 -95 -7 -233 l3 -224 44 0 45 0 0 230 c0 147 -4 230 -10 230 -5 0 -10 -4 -10 -9 0 -5 -9 -11 -21 -13 -20 -3 -21 -7 -19 -205 0 -134 -3 -203 -10 -203 -6 0 -10 71 -10 209 l0 210 23 3 c21 3 21 4 2 9 -11 3 -25 1 -30 -4z" class=""></path> <path d="M4914 1075 c-5 -5 -8 -68 -6 -140 2 -74 7 -123 12 -116 6 10 10 8 15 -9 10 -31 -17 -59 -40 -40 -8 7 -13 20 -10 29 3 10 -30 66 -86 146 -86 123 -109 150 -109 127 0 -6 -10 -12 -21 -14 -21 -3 -21 -6 -20 -205 1 -132 -2 -203 -8 -208 -8 -4 -11 61 -11 209 l0 215 28 4 c25 4 25 4 -5 6 l-33 1 0 -230 0 -230 46 0 47 0 -5 145 c-3 80 -2 145 2 145 5 0 19 -17 32 -38 13 -21 57 -86 98 -145 72 -102 76 -106 113 -107 l37 0 0 229 0 229 -33 4 c-19 2 -38 -1 -43 -7z m41 -14 c-17 -7 -21 -20 -26 -92 l-5 -84 -2 93 -2 92 28 -1 c23 0 24 -1 7 -8z m-232 -71 c15 -16 27 -34 27 -38 0 -5 16 -30 36 -56 29 -38 34 -50 24 -59 -10 -9 -11 -9 -6 1 5 7 -8 27 -33 51 -47 45 -64 54 -80 38 -6 -6 -12 -9 -14 -6 -6 8 5 99 12 99 4 0 20 -13 34 -30z m126 -180 c6 -18 6 -28 1 -25 -6 4 -10 13 -10 21 0 8 -4 12 -10 9 -11 -7 -14 8 -3 18 10 10 10 10 22 -23z m76 -80 c3 0 4 4 1 9 -7 10 19 23 28 14 3 -4 6 -26 6 -50 0 -55 -25 -58 -58 -6 -14 21 -17 31 -8 24 12 -10 16 -10 16 -1 0 6 -9 14 -20 17 -11 3 -20 10 -20 15 0 5 -5 6 -12 2 -7 -4 -8 -3 -4 5 5 8 15 6 36 -9 15 -11 31 -20 35 -20z" class=""></path> <path d="M5205 1071 c-123 -57 -172 -208 -107 -331 34 -65 89 -106 164 -121 48 -10 65 -9 110 6 29 9 65 26 80 37 27 19 28 22 28 116 -1 83 -3 94 -14 80 -10 -14 -28 -18 -80 -18 -49 0 -66 -3 -66 -14 0 -7 -7 -20 -17 -27 -14 -12 -9 -15 43 -19 45 -4 63 -1 74 10 8 9 12 11 8 6 -5 -6 -8 -27 -8 -48 0 -48 -30 -70 -103 -74 l-52 -4 53 14 c30 7 58 18 64 24 6 6 -7 4 -29 -3 -103 -36 -195 33 -195 146 0 117 107 191 208 143 19 -9 34 -20 34 -25 0 -20 28 -7 50 23 l23 31 -28 21 c-66 49 -169 60 -240 27z m169 -8 c9 -5 -14 -7 -57 -5 -68 4 -75 2 -121 -30 -65 -43 -96 -101 -96 -177 0 -40 -3 -52 -10 -41 -18 28 -11 95 16 148 27 54 67 91 119 111 32 11 124 8 149 -6z m51 -53 c-3 -5 -13 -6 -21 -3 -12 4 -13 8 -3 14 15 9 32 2 24 -11z m-247 -305 c4 -5 19 -18 33 -27 14 -10 18 -17 10 -17 -16 -1 -81 65 -81 82 0 7 7 3 15 -8 8 -11 18 -24 23 -30z"></path> <path d="M338 1073 c23 -2 61 -2 85 0 23 2 4 4 -43 4 -47 0 -66 -2 -42 -4z"></path> <path d="M930 1070 c0 -5 -11 -10 -24 -10 -21 0 -30 -19 -102 -206 -63 -167 -83 -208 -101 -215 -36 -13 -27 -19 27 -19 l49 0 18 50 18 50 90 0 90 0 18 -50 c17 -49 19 -50 57 -50 25 0 40 5 40 13 0 22 -163 447 -172 447 -4 0 -8 -4 -8 -10z m8 -84 c2 -10 -2 -22 -9 -27 -20 -12 26 -150 46 -142 10 3 15 -1 15 -15 0 -25 -18 -31 -88 -30 -75 1 -75 18 0 20 l63 2 -59 3 c-65 5 -63 -4 -25 98 13 33 28 63 34 68 6 5 4 12 -7 21 -19 14 -13 28 11 24 9 -2 17 -12 19 -22z m-83 -226 c18 -7 17 -8 -10 -15 -16 -4 -36 -8 -42 -11 -16 -4 -17 8 -1 24 14 14 24 14 53 2z m171 -6 c-3 -9 -1 -12 4 -9 6 3 10 -2 10 -13 0 -28 -25 -23 -37 8 -8 22 -7 26 9 27 14 1 18 -3 14 -13z"></path> <path d="M1287 1071 c51 -3 97 -11 104 -18 9 -9 2 -9 -27 -2 -22 4 -65 9 -96 9 l-58 0 0 -205 c0 -174 -2 -207 -15 -211 -38 -15 -7 -24 82 -24 126 0 174 20 199 85 20 55 13 103 -22 136 -21 20 -28 21 -45 11 -15 -9 -24 -10 -37 -2 -16 11 -16 11 1 6 9 -3 17 0 17 6 0 6 3 9 6 5 11 -11 55 51 61 86 7 46 -20 95 -62 113 -22 9 -64 13 -117 12 l-83 -2 92 -5z m71 -83 c7 -7 12 -21 12 -33 0 -12 -5 -26 -12 -33 -7 -7 -8 -12 -2 -12 6 0 18 15 27 33 13 26 16 28 16 11 1 -12 -8 -33 -20 -48 -17 -22 -28 -26 -70 -26 -43 0 -65 -12 -41 -22 4 -1 0 -11 -10 -20 -17 -17 -18 -17 -18 12 0 24 5 31 28 36 43 9 49 12 25 13 -21 1 -23 6 -23 51 l0 50 38 0 c21 0 43 -5 50 -12z m20 -180 c28 -14 30 -60 2 -88 -14 -14 -33 -20 -65 -20 l-45 0 0 63 0 63 43 -4 c23 -2 52 -8 65 -14z m38 -93 c-16 -25 -70 -45 -118 -45 -16 0 -28 -4 -28 -10 0 -5 -10 -10 -22 -9 l-23 0 23 11 c12 6 22 15 22 20 0 4 19 8 43 8 49 0 83 20 99 59 9 21 12 23 15 8 3 -10 -2 -29 -11 -42z"></path> <path d="M1740 1070 c0 -5 -10 -10 -22 -10 -20 0 -32 -23 -104 -208 -61 -155 -86 -207 -98 -206 -9 1 -16 -4 -16 -12 0 -10 13 -14 45 -14 44 0 44 0 62 50 l18 50 91 0 92 0 13 -50 13 -50 44 0 c54 0 57 -18 -45 257 -66 176 -93 232 -93 193z m7 -91 c-3 -11 -1 -19 4 -19 4 0 6 -7 2 -16 -5 -13 -7 -13 -14 -2 -17 26 -10 -20 12 -76 14 -39 24 -53 35 -49 9 3 14 -2 14 -16 0 -23 -28 -34 -76 -30 -46 3 -66 0 -59 -11 3 -5 0 -10 -7 -10 -7 0 -26 -7 -41 -15 -16 -8 -27 -11 -25 -7 31 62 26 59 101 61 88 2 103 11 19 11 l-61 0 23 53 c13 28 26 64 30 80 3 15 11 27 16 27 6 0 10 7 10 16 0 11 -6 14 -22 9 -22 -7 -22 -7 -3 8 24 19 48 10 42 -14z m91 -211 c18 -18 14 -38 -7 -38 -26 0 -44 23 -29 38 15 15 21 15 36 0z"></path> <path d="M1975 1070 c-3 -5 -5 -109 -4 -230 l1 -220 44 0 43 0 3 158 3 157 22 -35 c12 -19 57 -90 100 -157 l78 -123 40 0 40 0 0 230 c0 177 -3 230 -12 230 -7 0 -13 -4 -13 -10 0 -5 -7 -10 -15 -10 -12 0 -15 -16 -15 -87 0 -47 -3 -83 -7 -80 -3 4 -9 46 -13 94 -8 85 -8 83 -8 -47 0 -95 -3 -134 -11 -133 -13 4 -15 -13 -2 -22 13 -7 23 11 32 55 6 32 7 31 8 -16 1 -40 -3 -53 -16 -58 -22 -9 -36 7 -38 42 -1 17 -34 75 -86 150 l-84 122 -42 0 c-23 0 -45 -4 -48 -10z m53 -7 l-28 -4 0 -206 c0 -114 -2 -204 -4 -202 -2 2 -6 97 -9 212 l-6 207 37 -1 c30 -2 32 -3 10 -6z m63 -87 c18 -24 31 -47 29 -51 -1 -4 12 -19 29 -34 17 -15 31 -33 31 -39 0 -6 7 -18 16 -27 9 -9 14 -19 10 -22 -9 -10 -47 39 -42 54 3 7 2 13 -3 13 -4 0 -25 18 -47 40 -33 34 -43 39 -69 34 -24 -5 -28 -4 -17 7 6 7 12 26 12 41 0 40 16 35 51 -16z m220 -230 c3 -19 -1 -90 -5 -93 -9 -9 -34 10 -29 23 3 9 -1 14 -12 14 -12 0 -16 6 -12 20 3 11 2 18 -3 15 -4 -3 -11 2 -14 11 -3 8 -2 13 2 11 4 -3 16 -1 27 3 27 10 45 8 46 -4z"></path> <path d="M2663 1065 c-3 -9 -3 -19 1 -22 3 -4 6 1 6 10 0 10 11 17 33 20 l32 4 -33 1 c-21 1 -35 -3 -39 -13z"></path> <path d="M2740 1070 c0 -5 -11 -10 -25 -10 l-26 0 3 -204 c3 -192 2 -205 -16 -210 -32 -8 -6 -26 40 -26 l44 0 0 100 0 100 91 0 92 0 -6 -73 c-3 -41 -3 -86 0 -100 5 -24 10 -27 47 -27 l41 0 1 231 2 230 -46 -3 c-27 -2 -46 -8 -48 -16 -1 -7 0 -8 3 -2 2 5 19 9 36 9 24 -1 26 -3 10 -6 -22 -4 -23 -9 -23 -94 l0 -89 -95 0 c-52 0 -98 -1 -101 -2 -4 -2 -6 43 -5 100 1 66 -2 102 -8 102 -6 0 -11 -4 -11 -10z m10 -227 c-14 -10 -20 -29 -23 -71 -3 -52 -3 -50 -5 19 -1 42 1 78 4 82 3 3 14 1 24 -6 18 -11 18 -11 0 -24z m250 -15 c0 -30 -1 -31 -14 -12 -20 26 -25 10 -29 -91 -3 -78 -3 -77 -5 21 -1 55 1 104 5 107 3 4 15 7 25 7 14 0 18 -8 18 -32z"></path> <path d="M3710 1070 c0 -5 -9 -10 -20 -10 -20 0 -21 -4 -18 -205 2 -113 0 -205 -4 -205 -5 0 -8 55 -9 123 -1 67 -5 163 -9 212 -6 67 -7 34 -6 -135 l1 -225 131 -3 132 -3 5 38 c5 41 -8 68 -19 40 -5 -14 -21 -17 -90 -17 -68 0 -84 -3 -84 -15 0 -8 -6 -15 -13 -15 -15 0 -17 40 -2 41 5 0 46 1 90 1 l80 2 -70 3 -70 4 3 189 c3 167 1 190 -12 190 -9 0 -16 -4 -16 -10z"></path> <path d="M4033 1073 c20 -2 54 -2 75 0 20 2 3 4 -38 4 -41 0 -58 -2 -37 -4z"></path> <path d="M493 1061 c10 -4 -27 -5 -82 -3 l-101 4 0 -206 c0 -174 -2 -208 -15 -212 -39 -15 -5 -24 93 -24 82 0 116 5 148 19 109 49 155 198 100 318 -28 59 -93 113 -135 112 -21 0 -23 -2 -8 -8z m0 -72 c12 -7 30 -12 41 -13 20 -1 22 -6 32 -107 11 -107 -41 -169 -143 -169 l-53 0 0 150 0 150 51 0 c28 0 60 -5 72 -11z m97 -204 c-7 -22 -23 -52 -38 -67 -25 -27 -36 -31 -136 -43 -35 -5 -45 -9 -35 -16 10 -6 5 -9 -18 -9 -27 0 -30 3 -26 21 4 14 8 17 13 9 5 -9 9 -9 14 -1 4 6 30 11 58 11 96 0 153 52 166 151 6 47 7 50 10 19 2 -19 -2 -53 -8 -75z"></path> <path d="M1184 895 c0 -99 2 -138 3 -87 2 51 2 132 0 180 -1 48 -3 6 -3 -93z"></path> <path d="M3983 865 c0 -116 3 -184 6 -151 4 32 4 127 0 210 -6 151 -6 151 -6 -59z"></path> <path d="M4185 1061 c11 -5 -24 -6 -77 -3 l-98 5 -2 -209 c-2 -161 -6 -208 -15 -206 -7 1 -13 -5 -13 -13 0 -12 16 -15 88 -15 101 0 154 12 198 46 80 60 105 214 51 307 -31 53 -89 97 -127 96 -23 0 -23 -1 -5 -8z m12 -81 c42 -25 63 -68 63 -127 0 -93 -58 -153 -147 -153 l-43 0 0 150 0 150 48 0 c29 0 59 -7 79 -20z m72 -216 c-26 -55 -69 -84 -126 -84 -23 0 -49 -3 -59 -7 -16 -6 -16 -7 2 -14 14 -5 8 -8 -21 -8 -36 0 -38 1 -22 13 14 11 15 15 5 19 -7 3 13 6 45 6 103 2 156 40 180 130 10 40 12 43 15 18 2 -15 -7 -48 -19 -73z"></path> <path d="M1658 1049 c-45 -107 -147 -383 -144 -386 4 -4 15 21 97 232 33 82 58 154 56 159 -2 6 -6 3 -9 -5z"></path> <path d="M811 954 c-12 -31 -20 -59 -18 -61 2 -2 14 22 26 53 12 31 20 59 18 61 -2 2 -14 -22 -26 -53z"></path> <path d="M2943 955 c0 -27 2 -38 4 -22 2 15 2 37 0 50 -2 12 -4 0 -4 -28z"></path> <path d="M284 810 c0 -85 2 -120 3 -77 2 42 2 112 0 155 -1 42 -3 7 -3 -78z"></path> <path d="M2662 790 c0 -71 4 -130 9 -130 5 0 9 59 9 130 0 72 -4 130 -9 130 -5 0 -9 -58 -9 -130z"></path> <path d="M2808 893 c23 -2 61 -2 85 0 23 2 4 4 -43 4 -47 0 -66 -2 -42 -4z"></path> <path d="M751 799 c-17 -45 -30 -83 -28 -85 2 -2 18 33 36 77 17 45 30 83 28 85 -2 2 -18 -33 -36 -77z"></path> <path d="M5301 853 c-7 -8 -10 -17 -6 -21 4 -4 10 -1 12 6 3 7 23 12 53 12 27 0 51 4 54 9 9 15 -98 9 -113 -6z"></path>  <path d="M3823 423 c-20 -3 -30 -9 -27 -17 2 -6 6 -40 7 -73 2 -42 8 -68 20 -81 20 -22 57 -19 57 4 0 8 12 20 28 26 15 7 29 13 30 14 11 7 19 80 11 96 -8 14 -6 18 8 19 28 2 -38 17 -72 16 -16 0 -44 -2 -62 -4z m102 -73 c0 -30 -4 -36 -30 -45 -20 -7 -30 -17 -30 -30 0 -11 -7 -20 -15 -20 -11 0 -15 15 -16 65 -1 36 -1 68 1 71 2 3 23 3 47 0 41 -6 43 -7 43 -41z"></path> <path d="M3867 363 c-14 -13 -6 -33 13 -33 13 0 20 7 20 20 0 19 -20 27 -33 13z"></path> <path d="M4495 420 c-16 -4 -24 -8 -17 -9 8 0 12 -7 9 -13 -2 -7 2 -27 10 -45 7 -18 13 -43 13 -56 0 -29 32 -60 56 -55 11 2 21 16 25 33 10 46 34 96 42 88 13 -12 1 35 -12 51 -14 17 -72 20 -126 6z m114 -34 c16 -10 4 -26 -19 -26 -13 0 -19 -6 -18 -17 4 -54 -3 -93 -17 -93 -12 0 -15 13 -15 60 0 47 -3 58 -14 54 -15 -6 -30 11 -23 24 6 9 90 7 106 -2z"></path> <path d="M2650 350 c0 -11 7 -20 15 -20 8 0 15 9 15 20 0 11 -7 20 -15 20 -8 0 -15 -9 -15 -20z"></path> <path d="M2870 350 c0 -15 5 -20 18 -18 9 2 17 10 17 18 0 8 -8 16 -17 18 -13 2 -18 -3 -18 -18z"></path> <path d="M4083 355 c-3 -9 -3 -18 0 -22 10 -10 37 6 37 22 0 20 -29 20 -37 0z" class=""></path> <path d="M3548 326 c-11 -26 -1 -45 33 -58 18 -7 79 25 79 41 0 17 -43 41 -72 41 -20 0 -32 -7 -40 -24z m82 -11 c19 -12 -1 -25 -36 -25 -32 0 -45 16 -27 33 7 7 46 2 63 -8z"></path> <path d="M1540 326 c0 -34 4 -46 15 -46 18 0 31 48 18 68 -20 33 -33 24 -33 -22z"></path> <path d="M1840 331 c-14 -28 -13 -34 10 -49 24 -15 66 -6 74 15 17 44 -61 76 -84 34z m70 -16 c0 -10 -10 -15 -30 -15 -20 0 -30 5 -30 15 0 10 10 15 30 15 20 0 30 -5 30 -15z"></path> <path d="M4312 358 c-22 -22 -8 -78 20 -78 17 0 28 39 18 64 -11 29 -20 32 -38 14z"></path> <path d="M700 355 c0 -8 9 -15 20 -15 11 0 20 7 20 15 0 8 -9 15 -20 15 -11 0 -20 -7 -20 -15z"></path> <path d="M700 295 c0 -11 7 -15 23 -13 12 2 22 8 22 13 0 6 -10 11 -22 13 -16 2 -23 -2 -23 -13z"></path> <path d="M1497 3 c827 -2 2179 -2 3005 0 827 1 151 2 -1502 2 -1653 0 -2329 -1 -1503 -2z"></path> </g> </svg>